# xmcd
#
# Track frame offsets:
#	150
#	22727
#	48098
#	82757
#	148910
#	192508
#	224325
#
# Disc length: 3373 seconds
#
# Revision: 0
# Processed by: cddbd v1.5.2PL0 Copyright (c) Steve Scherf et al.
# Submitted via: EasyCDDAExtractor 9.0.0.1
#
DISCID=570d2b07
DTITLE=Frank Marino - Port Vale Football Stadium Stoke-On-Trent 01-08-81
DYEAR=1981
DGENRE=Hard Rock
TTITLE0=You Got Livin'
TTITLE1=Down Down Down
TTITLE2=Rock N' Roll Hall Of Fame
TTITLE3=Johnny B Goode
TTITLE4=Electric Reflections Of War (Incl Drum Solo)
TTITLE5=Something's Comin' Our Way
TTITLE6=Roadhouse Blues
EXTD=
EXTT0=
EXTT1=
EXTT2=
EXTT3=
EXTT4=
EXTT5=
EXTT6=
PLAYORDER=
